<?xml version="1.0" encoding="iso-8859-1"?>
<!-- Generator: Adobe Illustrator 19.0.0, SVG Export Plug-In . SVG Version: 6.00 Build 0)  -->
<svg xmlns="http://www.w3.org/2000/svg" xmlns:xlink="http://www.w3.org/1999/xlink" version="1.1" id="Capa_1" x="0px" y="0px" viewBox="0 0 460 460" style="enable-background:new 0 0 460 460;" xml:space="preserve" width="512" height="512">
<g id="XMLID_1923_">
	<path id="XMLID_1922_" style="fill:#4D4337;" d="M460,170v250c0,22.091-17.909,40-40,40H40c-22.091,0-40-17.909-40-40V170   c0-22.091,17.909-40,40-40h380C442.091,130,460,147.909,460,170z"/>
	<path id="XMLID_1914_" style="fill:#231C10;" d="M460,220v200c0,22.091-17.909,40-40,40H40c-22.091,0-40-17.909-40-40V220H460z    M120,50h220V0H120V50z"/>
	<path id="XMLID_1908_" style="fill:#3E362B;" d="M150,250h-50V50l20-50h30V250z M360,50L340,0h-30v250h50V50z"/>
	<path id="XMLID_1905_" style="fill:#A8A182;" d="M460,230v190c0,22.091-17.909,40-40,40H40c-22.091,0-40-17.909-40-40V230H460z"/>
	<path id="XMLID_1903_" style="fill:#635547;" d="M460,240v180c0,22.091-17.909,40-40,40H40c-22.091,0-40-17.909-40-40V240H460z"/>
	<path id="XMLID_501_" style="fill:#BFA881;" d="M255,190h-50c-2.761,0-5-2.239-5-5v-10c0-2.761,2.239-5,5-5h50c2.761,0,5,2.239,5,5   v10C260,187.761,257.761,190,255,190z"/>
</g>















</svg>
