<?xml version="1.0" encoding="iso-8859-1"?>
<!-- Generator: Adobe Illustrator 19.0.0, SVG Export Plug-In . SVG Version: 6.00 Build 0)  -->
<svg version="1.1" id="Layer_1" xmlns="http://www.w3.org/2000/svg" xmlns:xlink="http://www.w3.org/1999/xlink" x="0px" y="0px"
	 viewBox="0 0 480 480" style="enable-background:new 0 0 480 480;" xml:space="preserve">
<g>
	<path style="fill:#9CD9F1;" d="M202.344,378.152l26.344-26.344l-18.344-18.344c-1.504-1.496-2.344-3.536-2.344-5.656v-4.976
		c-16-4.728-28.272-12.632-39.68-23.32C156.808,307.336,142.928,312,128,312H88c-39.704,0-72,32.112-72,71.808V480h184v-96.192
		C200,381.688,200.84,379.656,202.344,378.152z"/>
	<path style="fill:#9CD9F1;" d="M392,312h-40c-14.928,0-28.808-4.664-40.32-12.48C300.272,310.208,288,318.112,272,322.84v4.976
		c0,2.12-0.848,4.152-2.344,5.656l-18.344,18.344l26.344,26.344c1.496,1.496,2.344,3.528,2.344,5.648V480h184v-96.192
		C464,344.112,431.704,312,392,312z"/>
</g>
<g>
	<path style="fill:#E5E8E8;" d="M299.536,288.968c-8.752-9.336-15.072-20.952-17.88-33.904c-12.976,5.68-27.056,8.744-41.64,8.744
		c-0.656,0-1.312,0-1.968-0.016c-14.056-0.256-27.448-3.448-39.648-9c-2.776,13.056-9.136,24.776-17.944,34.176
		c16.24,14.648,37.472,22.912,59.536,22.912C262.072,311.88,283.296,303.616,299.536,288.968z"/>
	<path style="fill:#E5E8E8;" d="M290.48,232H240v-16h67.872C320.904,200,328,180.528,328,159.808v-0.72
		c-24-3.824-40-23.544-40-47.28V104H184c-11.296,0-24-2.408-32-6.304v58.928c0,49.4,38.736,90.392,86.352,91.264
		C257.376,248.296,275.36,240,290.48,232z"/>
</g>
<path style="fill:#E07940;" d="M352,143.808c4.416,0,8-3.592,8-8v-32c0-4.408-3.584-8-8-8s-8,3.592-8,8v32
	C344,140.224,347.584,143.808,352,143.808z"/>
<path style="fill:#DA544A;" d="M226.384,326.88L240,340.496l13.616-13.616c-4.496,0.592-9.032,1-13.616,1
	S230.88,327.472,226.384,326.88z"/>
<path style="fill:#E07940;" d="M296,88c4.424,0,8,3.392,8,7.808v16c0,14.864,8,27.288,24,30.864v-6.864v-32v-48
	C328,33.76,310.056,16,288,16h-40h-8H112c0,40,32.296,72,72,72H296z"/>
<polygon style="fill:#DA544A;" points="240,363.12 216,387.12 216,480 264,480 264,387.12 "/>
<path style="fill:#334C5B;" d="M392,296h-40c-28.392,0-51.872-21.36-55.472-48.792c5.8-3.768,11.272-8.08,16.328-13.04
	c0.728-0.712,1.352-2.168,2.048-2.168H320c22.056,0,40-18.136,40-40.192v-33.472c8-3.312,16-12.112,16-22.528v-32
	c0-13.232-10.768-24-24-24c-2.816,0-8,0.576-8,1.472V55.808C344,24.928,318.872,0,288,0h-40h-8H104c-4.424,0-8,3.392-8,7.808v8
	c0,30.816,16,57.936,40,73.664v67.16c0,37.384,19.04,70.64,47.576,89.848C180.312,274.264,156.648,296,128,296H88
	c-48.52,0-88,39.288-88,87.808V480h8h8v-96.192C16,344.112,48.296,312,88,312h40c14.928,0,28.808-4.664,40.32-12.48
	c11.4,10.688,23.68,18.592,39.68,23.32v4.976c0,2.12,0.84,4.152,2.344,5.656l18.344,18.344l-26.344,26.344
	c-1.504,1.496-2.344,3.528-2.344,5.648V480h8h8v-92.88l24-24l24,24V480h8h8v-96.192c0-2.12-0.848-4.16-2.344-5.656l-26.344-26.344
	l18.344-18.344c1.496-1.496,2.344-3.536,2.344-5.656v-4.976c16-4.728,28.272-12.632,39.68-23.32
	C323.192,307.336,337.072,312,352,312h40c39.704,0,72,32.112,72,71.808V480h8h8v-96.192C480,335.288,440.52,296,392,296z
	 M344,103.808c0-4.408,3.584-8,8-8s8,3.592,8,8v32c0,4.408-3.584,8-8,8s-8-3.592-8-8V103.808z M344,159.808v32
	c0,10.208-6.424,18.88-15.424,22.344C338.552,197.968,344,179.344,344,159.808z M112,16h128h8h40c22.056,0,40,17.76,40,39.808v48v32
	v6.864c-16-3.576-24-16-24-30.864v-16c0-4.416-3.576-7.808-8-7.808H184C144.296,88,112,56,112,16z M152,156.624V97.696
	c8,3.896,20.704,6.304,32,6.304h104v7.808c0,23.736,16,43.448,40,47.28v0.72c0,20.72-7.096,40.192-20.128,56.192H240v16h50.48
	c-15.128,8-33.104,16.296-52.136,15.888C190.736,247.016,152,206.024,152,156.624z M198.408,254.792
	c12.192,5.552,25.592,8.744,39.648,9c0.656,0.016,1.312,0.016,1.968,0.016c14.584,0,28.664-3.064,41.64-8.744
	c2.808,12.944,9.128,24.568,17.88,33.904c-16.24,14.648-37.472,22.912-59.536,22.912c-22.072,0-43.296-8.264-59.536-22.912
	C189.272,279.568,195.632,267.848,198.408,254.792z M240,340.496l-13.616-13.616c4.496,0.592,9.032,1,13.616,1
	c4.584,0,9.12-0.408,13.616-1L240,340.496z"/>
<g>
</g>
<g>
</g>
<g>
</g>
<g>
</g>
<g>
</g>
<g>
</g>
<g>
</g>
<g>
</g>
<g>
</g>
<g>
</g>
<g>
</g>
<g>
</g>
<g>
</g>
<g>
</g>
<g>
</g>
</svg>
