<?xml version="1.0" encoding="iso-8859-1"?>
<!-- Generator: Adobe Illustrator 19.0.0, SVG Export Plug-In . SVG Version: 6.00 Build 0)  -->
<svg version="1.1" id="Layer_1" xmlns="http://www.w3.org/2000/svg" xmlns:xlink="http://www.w3.org/1999/xlink" x="0px" y="0px"
	 viewBox="0 0 504.4 504.4" style="enable-background:new 0 0 504.4 504.4;" xml:space="preserve">
<path style="fill:#F4EFEF;" d="M498.4,118.8c0-24-17.6-43.6-39.6-43.6H41.6C20,75.2,2,94.8,2,118.8V404c0,24,17.6,43.6,39.6,43.6
	h417.2c21.6,0,39.6-19.6,39.6-43.6L498.4,118.8L498.4,118.8z"/>
<path style="fill:#DF5C4E;" d="M502.4,123.2V118c0-24-11.6-42.8-35.6-42.8H53.6C29.6,75.2,6.4,94,6.4,118v5.2H502.4z"/>
<path d="M460.8,453.2H43.6C19.6,453.2,0,432,0,405.6V120.4c0-26,19.6-47.6,43.6-47.6h417.2c24,0,43.6,21.2,43.6,47.6v285.2
	C504.4,432,484.8,453.2,460.8,453.2z M44,81.2c-19.6,0-35.6,17.6-35.6,39.6V406c0,21.6,16,39.6,35.6,39.6h417.2
	c19.6,0,35.6-17.6,35.6-39.6V120.8c0-21.6-16-39.6-35.6-39.6L44,81.2L44,81.2z"/>
<path d="M390.4,129.2h-376c-2.4,0-4-1.6-4-4s1.6-4,4-4h376c2.4,0,4,1.6,4,4S392.8,129.2,390.4,129.2z"/>
<path d="M498.4,129.2h-56c-2.4,0-4-1.6-4-4s1.6-4,4-4h56c2.4,0,4,1.6,4,4S500.8,129.2,498.4,129.2z"/>
<path d="M72.4,99.2c-2.4,0-4-1.6-4-4v-40c0-2.4,1.6-4,4-4s4,1.6,4,4v40C76.4,97.6,74.8,99.2,72.4,99.2z"/>
<path d="M132.4,99.2c-2.4,0-4-1.6-4-4v-40c0-2.4,1.6-4,4-4s4,1.6,4,4v40C136.4,97.6,134.8,99.2,132.4,99.2z"/>
<path d="M192.4,99.2c-2.4,0-4-1.6-4-4v-40c0-2.4,1.6-4,4-4s4,1.6,4,4v40C196.4,97.6,194.8,99.2,192.4,99.2z"/>
<path d="M252.4,99.2c-2.4,0-4-1.6-4-4v-40c0-2.4,1.6-4,4-4s4,1.6,4,4v40C256.4,97.6,254.8,99.2,252.4,99.2z"/>
<path d="M312.4,99.2c-2.4,0-4-1.6-4-4v-40c0-2.4,1.6-4,4-4s4,1.6,4,4v40C316.4,97.6,314.8,99.2,312.4,99.2z"/>
<path d="M372.4,99.2c-2.4,0-4-1.6-4-4v-40c0-2.4,1.6-4,4-4s4,1.6,4,4v40C376.4,97.6,374.8,99.2,372.4,99.2z"/>
<path d="M432.4,99.2c-2.4,0-4-1.6-4-4v-40c0-2.4,1.6-4,4-4s4,1.6,4,4v40C436.4,97.6,434.8,99.2,432.4,99.2z"/>
<path d="M82.4,189.2h-28c-2.4,0-4-1.6-4-4s1.6-4,4-4h28c2.4,0,4,1.6,4,4S84.8,189.2,82.4,189.2z"/>
<path d="M82.4,229.2h-28c-2.4,0-4-1.6-4-4s1.6-4,4-4h28c2.4,0,4,1.6,4,4S84.8,229.2,82.4,229.2z"/>
<path d="M82.4,269.2h-28c-2.4,0-4-1.6-4-4s1.6-4,4-4h28c2.4,0,4,1.6,4,4S84.8,269.2,82.4,269.2z"/>
<path d="M82.4,309.2h-28c-2.4,0-4-1.6-4-4s1.6-4,4-4h28c2.4,0,4,1.6,4,4S84.8,309.2,82.4,309.2z"/>
<path d="M82.4,349.2h-28c-2.4,0-4-1.6-4-4s1.6-4,4-4h28c2.4,0,4,1.6,4,4S84.8,349.2,82.4,349.2z"/>
<path d="M82.4,389.2h-28c-2.4,0-4-1.6-4-4s1.6-4,4-4h28c2.4,0,4,1.6,4,4S84.8,389.2,82.4,389.2z"/>
<path d="M450.4,189.2h-332c-2.4,0-4-1.6-4-4s1.6-4,4-4h332c2.4,0,4,1.6,4,4S452.8,189.2,450.4,189.2z"/>
<path d="M278.4,229.2h-160c-2.4,0-4-1.6-4-4s1.6-4,4-4h160c2.4,0,4,1.6,4,4S280.8,229.2,278.4,229.2z"/>
<path d="M450.4,229.2h-136c-2.4,0-4-1.6-4-4s1.6-4,4-4h136c2.4,0,4,1.6,4,4S452.8,229.2,450.4,229.2z"/>
<path d="M450.4,269.2h-60c-2.4,0-4-1.6-4-4s1.6-4,4-4h60c2.4,0,4,1.6,4,4S452.8,269.2,450.4,269.2z"/>
<path d="M354.4,269.2h-236c-2.4,0-4-1.6-4-4s1.6-4,4-4h236c2.4,0,4,1.6,4,4S356.8,269.2,354.4,269.2z"/>
<path d="M450.4,309.2h-332c-2.4,0-4-1.6-4-4s1.6-4,4-4h332c2.4,0,4,1.6,4,4S452.8,309.2,450.4,309.2z"/>
<path d="M278.4,349.2h-160c-2.4,0-4-1.6-4-4s1.6-4,4-4h160c2.4,0,4,1.6,4,4S280.8,349.2,278.4,349.2z"/>
<path d="M450.4,349.2h-136c-2.4,0-4-1.6-4-4s1.6-4,4-4h136c2.4,0,4,1.6,4,4S452.8,349.2,450.4,349.2z"/>
<path d="M450.4,389.2h-60c-2.4,0-4-1.6-4-4s1.6-4,4-4h60c2.4,0,4,1.6,4,4S452.8,389.2,450.4,389.2z"/>
<path d="M354.4,389.2h-236c-2.4,0-4-1.6-4-4s1.6-4,4-4h236c2.4,0,4,1.6,4,4S356.8,389.2,354.4,389.2z"/>
<g>
</g>
<g>
</g>
<g>
</g>
<g>
</g>
<g>
</g>
<g>
</g>
<g>
</g>
<g>
</g>
<g>
</g>
<g>
</g>
<g>
</g>
<g>
</g>
<g>
</g>
<g>
</g>
<g>
</g>
</svg>
